<?xml version="1.0" encoding="utf-8"?>
<!-- Generator: Adobe Illustrator 21.0.2, SVG Export Plug-In . SVG Version: 6.00 Build 0)  -->
<svg version="1.1" id="Layer_1" xmlns="http://www.w3.org/2000/svg" xmlns:xlink="http://www.w3.org/1999/xlink" x="0px" y="0px"
	 viewBox="0 0 988.9 125" style="enable-background:new 0 0 988.9 125;" xml:space="preserve">
<style type="text/css">
	.st0{fill:#FFFFFF;}
</style>
<g>
	<g>
		<path class="st0" d="M39.7,39.6H55l-0.1-15.9H38.5c-0.9,0-1.6-0.7-1.7-1.6L36.1,4.7l-16,1.9L18,22.2c-0.1,0.8-0.8,1.5-1.7,1.5H6.5
			l-2,15.7h11.7c0.9,0,1.7,0.8,1.7,1.7l-0.1,58.7c0,15.6,15.3,16.9,20,16.9c0.5,0,1.1,0,1.5,0c5.4-0.3,9.3-1.4,11.2-2.1L50.4,100
			c-6-0.1-9-1-10.7-3.2c-1.8-2.3-1.8-5.4-1.8-10.1L38,41.3C38,40.4,38.8,39.6,39.7,39.6z"/>
		<path class="st0" d="M105.8,27.2c-28.2-0.1-42,14.2-42.1,43.7c0,30.9,15.9,45.9,48.8,46c10.9,0,20.4-0.7,28.2-2.3V99.4
			c-8.8,1.5-17.7,2.3-26.5,2.3c-20.3,0-30.6-7.2-30.5-21.4c0-0.9,0.8-1.7,1.7-1.7l60.2,0.1c0.4-3.3,0.6-6.6,0.6-9.8
			C146.5,40.9,133.2,27.2,105.8,27.2z M125.4,65.7l-39.8-0.1c-0.8,0-1.8-0.8-1.7-2c1.1-14.3,8.6-21.4,22-21.4c14,0,21.3,7.1,21.3,21
			C127.3,63.3,127.6,65.7,125.4,65.7z"/>
		<polygon class="st0" points="162,116.9 182.1,116.9 182.3,4.9 162.2,4.8 		"/>
		<path class="st0" d="M237.7,27.4c-9.6,0-20.4,1.3-32.2,4v15.1c11.7-2.6,22.5-3.9,32.1-3.9c13,0,19.7,4.8,19.6,14.2v7
			c0,0.5-0.2,1-0.6,1.3c-0.3,0.2-0.7,0.4-1.1,0.4h-0.3c-6.2-1.2-12.4-1.8-18.6-1.8c-26-0.1-38.7,8.4-38.8,26
			c0,18.3,10.6,27.3,32.3,27.3c9.4,0,18-2.7,25.8-8c0.7-0.4,1.6-0.4,2.2,0.2l7.8,7.8h11.3l0.1-60.6C277.4,37,264.4,27.5,237.7,27.4z
			 M257.2,94.7c0,0.5-0.3,1-0.7,1.4c-6.9,5-14.6,7.6-22.7,7.5c-10.4,0-15.9-4.9-15.9-14.1c0-8.8,6.3-13.2,18.6-13.2
			c6.8,0,13.3,0.6,19.3,1.8c0.8,0.2,1.4,0.9,1.4,1.7V94.7z"/>
		<path class="st0" d="M399.2,27.8c-9.9,0-19.6,4.1-28.7,12.3c-0.3,0.3-0.7,0.4-1.1,0.4h-0.3c-0.5-0.1-1-0.4-1.2-0.9
			c-4-7.8-11.5-11.9-22.4-11.9c-11.2,0-20.8,4.3-28.8,12.9c-0.5,0.5-1.1,0.6-1.7,0.5c-0.6-0.2-1.1-0.7-1.2-1.3l-2.4-12.1h-15.1
			l-0.2,89.6h20.1l0.1-63c0-0.4,0.2-0.9,0.5-1.2c6.4-6.6,13.3-9.9,20.6-9.9c6.7,0,14.6,3.1,14.6,17.5l-0.1,56.6H372l0.1-63
			c0-0.5,0.2-0.9,0.5-1.2c6.7-6.5,13.9-9.9,21.3-9.8c10.3,0,15.7,6,15.7,17.2l-0.1,56.9h20.1l0.1-56
			C429.5,38.8,419.6,27.8,399.2,27.8z"/>
		<path class="st0" d="M113.3,18.4h-10.6c-0.2,0-0.4-0.1-0.5-0.3c-0.1-0.2-0.1-0.4,0-0.6L109.1,5c0.1-0.2,0.3-0.3,0.5-0.3H125
			c0.2,0,0.4,0.1,0.5,0.3c0.1,0.2,0,0.4-0.1,0.6l-11.5,12.5C113.7,18.3,113.6,18.4,113.3,18.4z"/>
	</g>
</g>
<g>
	<path class="st0" d="M491.6,63.7l-3.3-9.1h-12.5l-3.2,9.1H467l12.2-32.8h5.8l12.2,32.8H491.6z M486.9,50l-3.1-8.9
		c-0.2-0.6-0.5-1.5-0.9-2.8c-0.4-1.3-0.7-2.2-0.8-2.8c-0.4,1.8-1,3.8-1.8,6l-2.9,8.5H486.9z"/>
	<path class="st0" d="M515.9,46h12v16.4c-2,0.6-3.9,1.1-5.7,1.4c-1.8,0.3-3.8,0.4-5.9,0.4c-4.9,0-8.8-1.5-11.4-4.4s-4-7.1-4-12.4
		c0-5.3,1.5-9.4,4.5-12.3c3-3,7.2-4.5,12.5-4.5c3.4,0,6.6,0.7,9.7,2l-1.9,4.4c-2.6-1.2-5.3-1.8-7.9-1.8c-3.5,0-6.2,1.1-8.3,3.3
		c-2,2.2-3,5.2-3,9c0,4,0.9,7,2.7,9.1s4.4,3.1,7.9,3.1c1.7,0,3.6-0.2,5.5-0.6v-8.4h-6.8V46z"/>
	<path class="st0" d="M555.9,63.7h-18.5V31h18.5v4.5h-13.1v8.9H555v4.5h-12.3v10.2h13.1V63.7z"/>
	<path class="st0" d="M591.6,63.7H585l-16-26h-0.2l0.1,1.5c0.2,2.8,0.3,5.3,0.3,7.6v17h-4.8V31h6.5l16,25.9h0.1
		c0-0.3-0.1-1.6-0.2-3.7c-0.1-2.2-0.1-3.8-0.1-5V31h4.9V63.7z"/>
	<path class="st0" d="M615.7,35.1c-3.1,0-5.5,1.1-7.2,3.3c-1.8,2.2-2.6,5.2-2.6,9c0,4,0.8,7,2.5,9.1c1.7,2.1,4.1,3.1,7.3,3.1
		c1.4,0,2.7-0.1,4-0.4c1.3-0.3,2.6-0.6,4-1.1v4.6c-2.6,1-5.5,1.5-8.7,1.5c-4.8,0-8.4-1.4-11-4.3c-2.6-2.9-3.8-7-3.8-12.4
		c0-3.4,0.6-6.4,1.9-8.9c1.2-2.5,3-4.5,5.4-5.8s5.1-2,8.3-2c3.3,0,6.4,0.7,9.2,2.1l-1.9,4.4c-1.1-0.5-2.3-1-3.5-1.4
		C618.4,35.3,617.1,35.1,615.7,35.1z"/>
	<path class="st0" d="M632.3,63.7V31h5.3v32.6H632.3z"/>
	<path class="st0" d="M668.8,63.7l-3.3-9.1h-12.5l-3.2,9.1h-5.6l12.2-32.8h5.8l12.2,32.8H668.8z M664.1,50l-3.1-8.9
		c-0.2-0.6-0.5-1.5-0.9-2.8c-0.4-1.3-0.7-2.2-0.8-2.8c-0.4,1.8-1,3.8-1.8,6l-2.9,8.5H664.1z"/>
	<path class="st0" d="M722.4,63.7h-6.5l-16-26h-0.2l0.1,1.5c0.2,2.8,0.3,5.3,0.3,7.6v17h-4.8V31h6.5l16,25.9h0.1
		c0-0.3-0.1-1.6-0.2-3.7c-0.1-2.2-0.1-3.8-0.1-5V31h4.9V63.7z"/>
	<path class="st0" d="M753.5,63.7l-3.3-9.1h-12.5l-3.2,9.1H729l12.2-32.8h5.8l12.2,32.8H753.5z M748.9,50l-3.1-8.9
		c-0.2-0.6-0.5-1.5-0.9-2.8c-0.4-1.3-0.7-2.2-0.8-2.8c-0.4,1.8-1,3.8-1.8,6l-2.9,8.5H748.9z"/>
	<path class="st0" d="M778.4,35.1c-3.1,0-5.5,1.1-7.2,3.3c-1.8,2.2-2.6,5.2-2.6,9c0,4,0.8,7,2.5,9.1c1.7,2.1,4.1,3.1,7.3,3.1
		c1.4,0,2.7-0.1,4-0.4c1.3-0.3,2.6-0.6,4-1.1v4.6c-2.6,1-5.5,1.5-8.7,1.5c-4.8,0-8.4-1.4-11-4.3c-2.6-2.9-3.8-7-3.8-12.4
		c0-3.4,0.6-6.4,1.9-8.9c1.2-2.5,3-4.5,5.4-5.8s5.1-2,8.3-2c3.3,0,6.4,0.7,9.2,2.1l-1.9,4.4c-1.1-0.5-2.3-1-3.5-1.4
		C781.1,35.3,779.8,35.1,778.4,35.1z"/>
	<path class="st0" d="M795,63.7V31h5.3v32.6H795z"/>
	<path class="st0" d="M839.6,47.3c0,5.3-1.3,9.4-4,12.4c-2.7,2.9-6.4,4.4-11.3,4.4c-4.9,0-8.7-1.5-11.4-4.4s-4-7.1-4-12.5
		s1.3-9.5,4-12.4c2.7-2.9,6.4-4.3,11.4-4.3c4.9,0,8.6,1.5,11.2,4.4C838.3,37.8,839.6,42,839.6,47.3z M814.7,47.3
		c0,4,0.8,7.1,2.4,9.1c1.6,2.1,4,3.1,7.2,3.1c3.2,0,5.6-1,7.2-3.1c1.6-2.1,2.4-5.1,2.4-9.2c0-4-0.8-7-2.4-9.1
		c-1.6-2.1-4-3.1-7.2-3.1c-3.2,0-5.6,1-7.2,3.1S814.7,43.3,814.7,47.3z"/>
	<path class="st0" d="M875.4,63.7h-6.5l-16-26h-0.2l0.1,1.5c0.2,2.8,0.3,5.3,0.3,7.6v17h-4.8V31h6.5l16,25.9h0.1
		c0-0.3-0.1-1.6-0.2-3.7c-0.1-2.2-0.1-3.8-0.1-5V31h4.9V63.7z"/>
	<path class="st0" d="M906.6,63.7l-3.3-9.1h-12.5l-3.2,9.1H882l12.2-32.8h5.8l12.2,32.8H906.6z M901.9,50l-3.1-8.9
		c-0.2-0.6-0.5-1.5-0.9-2.8c-0.4-1.3-0.7-2.2-0.8-2.8c-0.4,1.8-1,3.8-1.8,6l-2.9,8.5H901.9z"/>
	<path class="st0" d="M918.8,63.7V31h5.3v28.1H938v4.6H918.8z"/>
	<path class="st0" d="M497.8,99c0,5.4-1.5,9.5-4.5,12.4s-7.3,4.3-12.9,4.3h-9.1V83h10.1c5.2,0,9.2,1.4,12.1,4.2
		C496.4,90,497.8,94,497.8,99z M492.2,99.2c0-7.8-3.7-11.7-11-11.7h-4.6v23.7h3.8C488.3,111.2,492.2,107.2,492.2,99.2z"/>
	<path class="st0" d="M524.8,115.7h-18.5V83h18.5v4.5h-13.1v8.9H524v4.5h-12.3v10.2h13.1V115.7z"/>
	<path class="st0" d="M575.5,115.7H569l-16-26h-0.2l0.1,1.5c0.2,2.8,0.3,5.3,0.3,7.6v17h-4.8V83h6.5l16,25.9h0.1
		c0-0.3-0.1-1.6-0.2-3.7c-0.1-2.2-0.1-3.8-0.1-5V83h4.9V115.7z"/>
	<path class="st0" d="M614.7,99.3c0,5.3-1.3,9.4-4,12.4c-2.7,2.9-6.4,4.4-11.3,4.4c-4.9,0-8.7-1.5-11.4-4.4c-2.6-2.9-4-7.1-4-12.5
		c0-5.4,1.3-9.5,4-12.4c2.7-2.9,6.4-4.3,11.4-4.3c4.9,0,8.6,1.5,11.2,4.4C613.4,89.8,614.7,94,614.7,99.3z M589.8,99.3
		c0,4,0.8,7.1,2.4,9.1c1.6,2.1,4,3.1,7.2,3.1c3.2,0,5.6-1,7.2-3.1c1.6-2.1,2.4-5.1,2.4-9.2c0-4-0.8-7-2.4-9.1
		c-1.6-2.1-4-3.1-7.2-3.1c-3.2,0-5.6,1-7.2,3.1C590.6,92.3,589.8,95.3,589.8,99.3z"/>
	<path class="st0" d="M634.3,115.7h-5.3V87.6h-9.6V83h24.5v4.6h-9.6V115.7z"/>
	<path class="st0" d="M650.8,115.7V83h5.3v32.6H650.8z"/>
	<path class="st0" d="M680.3,87.1c-3.1,0-5.5,1.1-7.2,3.3c-1.8,2.2-2.6,5.2-2.6,9c0,4,0.8,7,2.5,9.1c1.7,2.1,4.1,3.1,7.3,3.1
		c1.4,0,2.7-0.1,4-0.4s2.6-0.6,4-1.1v4.6c-2.6,1-5.5,1.5-8.7,1.5c-4.8,0-8.4-1.4-11-4.3c-2.6-2.9-3.8-7-3.8-12.4
		c0-3.4,0.6-6.4,1.9-8.9c1.2-2.5,3-4.5,5.4-5.8s5.1-2,8.3-2c3.3,0,6.4,0.7,9.2,2.1l-1.9,4.4c-1.1-0.5-2.3-1-3.5-1.4
		C682.9,87.3,681.6,87.1,680.3,87.1z"/>
	<path class="st0" d="M696.8,115.7V83h5.3v32.6H696.8z"/>
	<path class="st0" d="M733.3,115.7l-3.3-9.1h-12.5l-3.2,9.1h-5.6L721,82.9h5.8l12.2,32.8H733.3z M728.6,102l-3.1-8.9
		c-0.2-0.6-0.5-1.5-0.9-2.8c-0.4-1.3-0.7-2.2-0.8-2.8c-0.4,1.8-1,3.8-1.8,6l-2.9,8.5H728.6z"/>
	<path class="st0" d="M765.4,106.8c0,2.9-1,5.2-3.1,6.8c-2.1,1.7-5,2.5-8.7,2.5c-3.7,0-6.7-0.6-9.1-1.7v-5c1.5,0.7,3.1,1.2,4.7,1.7
		c1.7,0.4,3.2,0.6,4.7,0.6c2.1,0,3.7-0.4,4.7-1.2s1.5-1.9,1.5-3.2c0-1.2-0.5-2.3-1.4-3.1c-0.9-0.8-2.8-1.9-5.7-3
		c-3-1.2-5.1-2.6-6.3-4.1c-1.2-1.5-1.8-3.4-1.8-5.6c0-2.7,1-4.9,2.9-6.4s4.5-2.3,7.8-2.3c3.1,0,6.2,0.7,9.3,2.1l-1.7,4.4
		c-2.9-1.2-5.5-1.8-7.8-1.8c-1.7,0-3,0.4-3.9,1.1c-0.9,0.8-1.3,1.7-1.3,3c0,0.8,0.2,1.6,0.5,2.2c0.4,0.6,0.9,1.2,1.8,1.7
		c0.8,0.5,2.3,1.2,4.4,2.1c2.4,1,4.2,1.9,5.3,2.8s1.9,1.8,2.5,2.9C765.2,104,765.4,105.3,765.4,106.8z"/>
</g>
</svg>
